<?xml version="1.0" encoding="utf-8" ?><svg xmlns="http://www.w3.org/2000/svg" xmlns:xlink="http://www.w3.org/1999/xlink" width="256" height="256" viewBox="0 0 256 256"><path fill="#1BDBDB" transform="matrix(1.13778 0 0 1.13778 0.00012207 0)" d="M136.399 55.6116C140.934 55.1145 147.555 56.6399 151.734 58.3399C161.601 62.4191 169.458 70.2303 173.594 80.0736C186.201 110.315 159.848 145.077 135.691 160.877C132.378 163.044 128.935 165.846 125.286 167.35C126.44 166.103 127.728 165.134 129.062 164.096C144.427 152.073 158.263 135.589 163.282 116.41C169.288 93.4646 153.386 69.7065 128.389 73.4504C115.661 75.3567 108.683 83.9724 99.7102 92.1434C96.1861 95.3526 92.9618 99.2231 88.8687 101.742C97.4114 104.538 100.261 100.667 106.191 95.1702C112.537 89.3382 119.393 82.477 127.991 80.4577C133.81 79.1024 139.929 80.0898 145.026 83.2065C151.55 87.3185 156.21 93.8165 158.011 101.315C158.602 103.876 159.813 115.947 158.586 117.898C158.135 117.443 157.528 115.132 157.335 114.396C155.285 106.531 151.723 99.6191 144.478 95.4584C118.784 80.7023 108.938 128.992 83.6267 114.405C78.8835 111.674 75.4361 107.152 74.0589 101.854C69.7657 85.5083 85.0579 71.3833 99.6145 67.534C98.109 69.3236 94.5733 70.9152 92.6011 72.6403C83.2947 80.7806 79.5633 90.8508 88.1051 100.97C84.7467 90.9168 88.9472 84.5567 96.4267 77.9564C108.344 67.4402 119.559 56.3323 136.399 55.6116Z"/><path fill="#1BDBDB" transform="matrix(1.13778 0 0 1.13778 0.00012207 0)" d="M84.4372 55.61C91.6858 54.4214 101.806 58.7694 108.211 61.7314C101.26 62.4593 95.91 62.4655 89.2391 65.3998C80.2559 69.3512 72.2354 76.6117 68.5878 85.8171C65.8284 92.7108 65.9315 100.42 68.8743 107.238C71.912 114.253 77.261 119.612 84.4013 122.417C87.4407 123.593 90.6662 124.215 93.9249 124.252C109.99 124.377 116.716 107.038 129.897 101.063C133.011 99.6762 136.42 99.3312 139.61 100.701C151.55 105.826 153.31 121.238 148.792 131.983C147.585 134.795 146.038 137.448 144.183 139.882C138.29 147.752 120.046 166.648 111.301 170.239C107.785 169.57 104.948 168.313 101.686 166.93C95.1113 163.997 85.5321 158.909 79.439 154.799C85.7683 156.113 88.7399 158.174 95.9348 157.982C108.944 157.635 117.989 150.308 126.547 141.382C132.979 134.674 138.145 128.672 137.816 118.843C137.632 109.536 127.123 119.326 124.473 121.819C116.514 129.305 108.029 137.857 96.4348 138.575C74.1943 139.059 50.7938 114.501 49.6001 93.2514C49.0779 83.927 52.2902 74.7785 58.5272 67.8275C65.3574 60.1989 74.2559 56.1949 84.4372 55.61Z"/><path fill="#1BDBDB" transform="matrix(1.13778 0 0 1.13778 0.00012207 0)" d="M48.6371 109.665C50.2779 112.051 51.5677 114.834 53.0371 117.344C61.0525 131.037 75.4697 144.06 91.8026 145.39C100.701 146.136 109.551 143.477 116.565 137.95C119.48 135.699 122.111 133.09 124.929 130.704L125.622 130.945L125.699 131.339C124.988 132.291 124.239 132.914 124.066 133.965C119.232 140.53 109.621 148.55 101.749 150.644C92.8492 153.012 84.4883 151.505 76.5975 147.026C66.2339 141.145 58.4456 131.586 53.3577 120.965C51.3971 116.872 49.916 114.171 48.6371 109.665Z"/><path fill="#1BDBDB" transform="matrix(1.13778 0 0 1.13778 0.00012207 0)" d="M124.929 130.704C125.726 129.815 131.007 125.141 131.964 125.013C131.87 126.634 125.596 132.295 124.066 133.965C124.239 132.914 124.988 132.291 125.699 131.339L125.622 130.945L124.929 130.704Z"/></svg>